<svg width="512" height="512" viewBox="0 0 512 512" fill="none" xmlns="http://www.w3.org/2000/svg">
<path d="M256 8.67209C392.595 8.67209 503.328 119.405 503.328 256C503.328 392.595 392.595 503.328 256 503.328C119.405 503.328 8.67209 392.595 8.67209 256C8.67209 119.405 119.405 8.67209 256 8.67209Z" fill="#ADA7FB" stroke="black" stroke-width="12.5"/>
<path d="M399.61 455.458H137.019L126.612 464.13C151.01 474.768 210.836 497.778 254.959 504.715C299.083 511.653 369.778 474.768 399.61 455.458Z" fill="#88725D" stroke="#88725D" stroke-width="5"/>
<path d="M235.881 455.111L234.493 433.257" stroke="#88725D" stroke-width="5"/>
<path d="M297.626 434.992L333.867 342.721L444.705 347.785L394.324 455.805H233.106L234.146 436.379L297.626 434.992Z" fill="#CDC0A5" stroke="black" stroke-width="5.5"/>
<path d="M353.464 234.493C319.654 230.238 276.049 195.697 271.263 178.298L336.41 206.396L373.247 213.007L353.464 234.493Z" fill="#F1F1F1"/>
<path d="M164.77 393.366C157.138 428.054 152.976 428.401 147.079 439.848L136.672 455.805H235.881V435.686C202.58 402.94 174.598 393.829 164.77 393.366Z" fill="#536A18" stroke="black" stroke-width="3" stroke-linecap="round" stroke-linejoin="round"/>
<path d="M44.748 377.756C71.227 329.77 129.734 233.106 151.935 230.331C169.418 217.843 176.795 203.158 178.298 197.377C196.336 161.07 242.957 91.2997 285.138 102.678C337.865 116.9 372.9 153.322 377.062 162.341C381.225 171.36 382.266 204.661 374.287 211.599C367.905 217.149 352.665 213.911 345.843 211.599C324.105 204.545 273.47 176.418 272.65 180.379C271.841 182.808 271.887 189.745 278.547 198.07C280.553 199.958 297.737 219.121 311.501 227.209C330.11 238.142 346.476 237.555 348.271 239.35C331.967 250.45 311.501 248.715 279.588 235.534C264.903 225.358 234.354 214.582 229.637 252.878C223.74 300.748 257.734 289.995 266.407 312.542C273.344 330.58 286.179 341.333 291.729 344.455C296.701 351.162 307.686 367.141 311.848 377.409C317.051 390.244 303.176 403.425 296.932 403.425C290.688 403.425 290.688 402.038 279.588 390.244C274.87 386.914 267.91 371.743 265.019 364.575C262.475 359.834 256.069 348.965 250.797 343.415C246.283 338.663 242.125 328.319 239.934 321.74C242.32 330.422 243.512 343.755 243.512 346.537C243.512 350.925 235.765 375.791 234.146 388.856C248.369 394.753 270.569 421.81 274.732 435.686H235.881C202.58 402.94 174.598 393.829 164.77 393.366C160.607 428.054 139.331 456.152 128.347 465.864C79.2282 443.941 52.1482 397.991 44.748 377.756Z" fill="#7C992F"/>
<path d="M164.77 393.366C160.607 428.054 139.331 456.152 128.347 465.864C79.2282 443.941 52.1482 397.991 44.748 377.756C71.227 329.77 129.734 233.106 151.935 230.331C169.418 217.843 176.795 203.158 178.298 197.377C196.336 161.07 242.957 91.2997 285.138 102.678C337.865 116.9 372.9 153.322 377.062 162.341C381.225 171.36 382.266 204.661 374.287 211.599C367.905 217.149 352.665 213.911 345.843 211.599C324.105 204.545 273.47 176.418 272.65 180.379C271.841 182.808 271.887 189.745 278.547 198.07C280.553 199.958 297.737 219.121 311.501 227.209C330.11 238.142 346.476 237.555 348.271 239.35C331.967 250.45 311.501 248.715 279.588 235.534C264.903 225.358 234.354 214.582 229.637 252.878C223.74 300.748 257.734 289.995 266.407 312.542C273.344 330.58 286.179 341.333 291.729 344.455C296.701 351.162 307.686 367.141 311.848 377.409C317.051 390.244 303.176 403.425 296.932 403.425C290.688 403.425 290.688 402.038 279.588 390.244C274.87 386.914 267.91 371.743 265.019 364.575C262.475 359.834 256.069 348.965 250.797 343.415C245.524 337.865 240.737 324.683 239.003 318.786C242.009 326.995 243.512 343.415 243.512 346.537C243.512 350.925 235.765 375.791 234.146 388.856M164.77 393.366C154.247 384.116 131.261 359.233 123.491 333.702M164.77 393.366C174.598 393.829 202.58 402.94 235.881 435.686H274.732C270.569 421.81 248.369 394.753 234.146 388.856M234.146 388.856C220.655 383.263 205.586 367.928 200.152 360.412C200.152 360.412 190.441 357.598 183.501 350.352C172.982 339.369 164.77 312.542 164.77 312.542" stroke="black" stroke-width="5" stroke-linecap="round" stroke-linejoin="round"/>
<path d="M305.604 127.653C310.394 127.653 314.276 131.536 314.276 136.325C314.276 141.115 310.394 144.997 305.604 144.997C300.815 144.997 296.932 141.115 296.932 136.325C296.932 131.536 300.815 127.653 305.604 127.653Z" fill="black"/>
<path d="M305.951 133.203C307.867 133.203 309.42 134.756 309.42 136.672C309.42 138.588 307.867 140.141 305.951 140.141C304.035 140.141 302.482 138.588 302.482 136.672C302.482 134.756 304.035 133.203 305.951 133.203Z" fill="#9F7D96"/>
<path d="M351.74 227.556C353.358 228.133 355.209 231.163 349.659 238.656C317.745 236.921 286.299 205.571 284.791 204.314C282.71 202.58 274.038 190.439 274.385 186.276C275.495 188.219 306.821 212.107 325.377 219.577C335.355 223.594 351.74 227.556 351.74 227.556Z" fill="#BC3227" stroke="black" stroke-width="2.5"/>
<path d="M256 8.67209C392.595 8.67209 503.328 119.405 503.328 256C503.328 392.595 392.595 503.328 256 503.328C119.405 503.328 8.67209 392.595 8.67209 256C8.67209 119.405 119.405 8.67209 256 8.67209Z" stroke="black" stroke-width="12.5"/>
<path d="M256 8.67209C392.595 8.67209 503.328 119.405 503.328 256C503.328 392.595 392.595 503.328 256 503.328C119.405 503.328 8.67209 392.595 8.67209 256C8.67209 119.405 119.405 8.67209 256 8.67209Z" stroke="black" stroke-width="12.5"/>
</svg>
