<svg width="64" height="64" viewBox="0 0 64 64" fill="none" xmlns="http://www.w3.org/2000/svg">
<g clip-path="url(#clip0_7_61)">
<path d="M32 1.08401C49.0744 1.08401 62.916 14.9256 62.916 32C62.916 49.0744 49.0744 62.916 32 62.916C14.9255 62.916 1.08398 49.0744 1.08398 32C1.08398 14.9256 14.9255 1.08401 32 1.08401Z" fill="#ADA7FB" stroke="black" stroke-width="1.5625"/>
<path d="M49.9512 56.9323H17.1274L15.8265 58.0163C18.8763 59.346 26.3545 62.2222 31.8699 63.0894C37.3853 63.9566 46.2222 59.346 49.9512 56.9323Z" fill="#88725D"/>
<path d="M29.4851 56.8889L29.3116 54.1572" stroke="#88725D" stroke-width="5"/>
<path d="M37.2032 54.374L41.7333 42.8401L55.588 43.4731L49.2905 56.9756H29.1382L29.2683 54.5474L37.2032 54.374Z" fill="#CDC0A5" stroke="black" stroke-width="0.6875"/>
<path d="M44.183 29.3117C39.9568 28.7797 34.5061 24.4621 33.9078 22.2873L42.0512 25.7995L46.6558 26.6258L44.183 29.3117Z" fill="#F1F1F1"/>
<path d="M20.5962 49.1707C19.6423 53.5068 19.1219 53.5501 18.3848 54.981L17.084 56.9756H29.4851V54.4607C25.3225 50.3675 21.8248 49.2286 20.5962 49.1707Z" fill="#536A18" stroke="black" stroke-width="0.375" stroke-linecap="round" stroke-linejoin="round"/>
<path d="M5.59351 47.2195C8.90338 41.2213 16.2168 29.1382 18.9919 28.7913C21.1772 27.2303 22.0993 25.3947 22.2873 24.6721C24.542 20.1337 30.3697 11.4125 35.6423 12.8347C42.2331 14.6125 46.6125 19.1653 47.1328 20.2927C47.6531 21.42 47.7832 25.5826 46.7859 26.4499C45.9881 27.1436 44.0831 26.7389 43.2304 26.4499C40.5131 25.5682 34.1837 22.0522 34.0813 22.5474C33.9801 22.8509 33.9859 23.7181 34.8184 24.7588C35.0691 24.9948 37.2171 27.3902 38.9377 28.4011C41.2637 29.7678 43.3095 29.6943 43.5339 29.9187C41.4959 31.3062 38.9377 31.0894 34.9485 29.4417C33.1129 28.1698 29.2943 26.8228 28.7046 31.6097C27.9675 37.5935 32.2168 36.2493 33.3008 39.0677C34.168 41.3225 35.7724 42.6667 36.4661 43.0569C37.0877 43.8952 38.4607 45.8927 38.981 47.1761C39.6314 48.7805 37.897 50.4282 37.1165 50.4282C36.3361 50.4282 36.3361 50.2547 34.9485 48.7805C34.3588 48.3642 33.4887 46.4679 33.1274 45.5718C32.8094 44.9792 32.0087 43.6206 31.3496 42.9268C30.7854 42.3329 30.2656 41.0399 29.9917 40.2175C30.29 41.3027 30.439 42.9694 30.439 43.3171C30.439 43.8656 29.4706 46.9738 29.2683 48.607C31.0461 49.3442 33.8211 52.7263 34.3415 54.4607H29.4851C25.3225 50.3675 21.8248 49.2286 20.5962 49.1707C20.0759 53.5068 17.4164 57.019 16.0434 58.2331C9.90353 55.4927 6.51853 49.7489 5.59351 47.2195Z" fill="#7C992F"/>
<path d="M20.5962 49.1707C20.0759 53.5068 17.4164 57.019 16.0434 58.2331C9.90353 55.4927 6.51853 49.7489 5.59351 47.2195C8.90338 41.2213 16.2168 29.1382 18.9919 28.7913C21.1772 27.2303 22.0993 25.3947 22.2873 24.6721C24.542 20.1337 30.3697 11.4125 35.6423 12.8347C42.2331 14.6125 46.6125 19.1653 47.1328 20.2927C47.6531 21.42 47.7832 25.5826 46.7859 26.4499C45.9881 27.1436 44.0831 26.7389 43.2304 26.4499C40.5131 25.5682 34.1837 22.0522 34.0813 22.5474C33.9801 22.8509 33.9859 23.7181 34.8184 24.7588C35.0691 24.9948 37.2171 27.3902 38.9377 28.4011C41.2637 29.7678 43.3095 29.6943 43.5339 29.9187C41.4959 31.3062 38.9377 31.0894 34.9485 29.4417C33.1129 28.1698 29.2943 26.8228 28.7046 31.6097C27.9675 37.5935 32.2168 36.2493 33.3008 39.0677C34.168 41.3225 35.7724 42.6667 36.4661 43.0569C37.0877 43.8952 38.4607 45.8927 38.981 47.1761C39.6314 48.7805 37.897 50.4282 37.1165 50.4282C36.3361 50.4282 36.3361 50.2547 34.9485 48.7805C34.3588 48.3642 33.4887 46.4679 33.1274 45.5718C32.8094 44.9792 32.0087 43.6206 31.3496 42.9268C30.6905 42.2331 30.0922 40.5854 29.8753 39.8482C30.2511 40.8744 30.439 42.9268 30.439 43.3171C30.439 43.8656 29.4706 46.9738 29.2683 48.607M20.5962 49.1707C19.2809 48.0145 16.4076 44.9041 15.4363 41.7127M20.5962 49.1707C21.8248 49.2286 25.3225 50.3675 29.4851 54.4607H34.3415C33.8211 52.7263 31.0461 49.3442 29.2683 48.607M29.2683 48.607C27.5818 47.9078 25.6983 45.9909 25.019 45.0515C25.019 45.0515 23.8051 44.6997 22.9377 43.794C21.6228 42.4212 20.5962 39.0677 20.5962 39.0677" stroke="black" stroke-width="0.625" stroke-linecap="round" stroke-linejoin="round"/>
<path d="M38.2005 15.9566C38.7992 15.9566 39.2845 16.442 39.2845 17.0407C39.2845 17.6393 38.7992 18.1247 38.2005 18.1247C37.6018 18.1247 37.1165 17.6393 37.1165 17.0407C37.1165 16.442 37.6018 15.9566 38.2005 15.9566Z" fill="black"/>
<path d="M38.2439 16.6504C38.4834 16.6504 38.6775 16.8445 38.6775 17.084C38.6775 17.3235 38.4834 17.5176 38.2439 17.5176C38.0044 17.5176 37.8103 17.3235 37.8103 17.084C37.8103 16.8445 38.0044 16.6504 38.2439 16.6504Z" fill="#9F7D96"/>
<path d="M43.9675 28.4444C44.1698 28.5167 44.4011 28.8954 43.7073 29.832C39.7181 29.6152 35.7873 25.6963 35.5989 25.5393C35.3387 25.3225 34.2547 23.8049 34.2981 23.2845C34.4368 23.5274 38.3525 26.5133 40.6721 27.4471C41.9194 27.9493 43.9675 28.4444 43.9675 28.4444Z" fill="#BC3227" stroke="black" stroke-width="0.4375"/>
<path d="M32 1.08401C49.0744 1.08401 62.916 14.9256 62.916 32C62.916 49.0744 49.0744 62.916 32 62.916C14.9255 62.916 1.08398 49.0744 1.08398 32C1.08398 14.9256 14.9255 1.08401 32 1.08401Z" stroke="black" stroke-width="1.5625"/>
<path d="M32 1.08401C49.0744 1.08401 62.916 14.9256 62.916 32C62.916 49.0744 49.0744 62.916 32 62.916C14.9255 62.916 1.08398 49.0744 1.08398 32C1.08398 14.9256 14.9255 1.08401 32 1.08401Z" stroke="black" stroke-width="1.5625"/>
</g>
<defs>
<clipPath id="clip0_7_61">
<rect width="64" height="64" fill="white"/>
</clipPath>
</defs>
</svg>
