<svg width="128" height="128" viewBox="0 0 128 128" fill="none" xmlns="http://www.w3.org/2000/svg">
<g clip-path="url(#clip0_7_47)">
<path d="M64 2.16801C98.1489 2.16801 125.832 29.8511 125.832 64C125.832 98.1488 98.1489 125.832 64 125.832C29.8512 125.832 2.16803 98.1488 2.16803 64C2.16803 29.8511 29.8512 2.16801 64 2.16801Z" fill="#ADA7FB" stroke="black" stroke-width="3.125"/>
<path d="M99.9025 113.865H34.2548L31.6531 116.033C37.7526 118.692 52.709 124.444 63.7399 126.179C74.7708 127.913 92.4445 118.692 99.9025 113.865Z" fill="#88725D"/>
<path d="M58.9702 113.778L58.6233 108.314" stroke="#88725D" stroke-width="5"/>
<path d="M74.4065 108.748L83.4668 85.6802L111.176 86.9462L98.581 113.951H58.2764L58.5366 109.095L74.4065 108.748Z" fill="#CDC0A5" stroke="black" stroke-width="1.375"/>
<path d="M88.366 58.6233C79.9136 57.5594 69.0123 48.9243 67.8157 44.5745L84.1024 51.5989L93.3117 53.2516L88.366 58.6233Z" fill="#F1F1F1"/>
<path d="M41.1924 98.3415C39.2846 107.014 38.2439 107.1 36.7697 109.962L34.168 113.951H58.9702V108.921C50.645 100.735 43.6496 98.4571 41.1924 98.3415Z" fill="#536A18" stroke="black" stroke-width="0.75" stroke-linecap="round" stroke-linejoin="round"/>
<path d="M11.187 94.439C17.8068 82.4426 32.4336 58.2764 37.9838 57.5827C42.3545 54.4607 44.1987 50.7895 44.5745 49.3442C49.084 40.2674 60.7393 22.8249 71.2846 25.6694C84.4661 29.2249 93.225 38.3306 94.2656 40.5854C95.3063 42.8401 95.5664 51.1653 93.5718 52.8997C91.9762 54.2873 88.1662 53.4778 86.4607 52.8997C81.0263 51.1363 68.3675 44.1045 68.1626 45.0949C67.9602 45.7019 67.9718 47.4363 69.6369 49.5176C70.1383 49.9896 74.4343 54.7804 77.8754 56.8022C82.5274 59.5356 86.6191 59.3887 87.0678 59.8374C82.9919 62.6125 77.8754 62.1789 69.897 58.8835C66.2258 56.3396 58.5886 53.6455 57.4092 63.2195C55.935 75.187 64.4336 72.4986 66.6016 78.1355C68.3361 82.645 71.5447 85.3333 72.9323 86.1138C74.1753 87.7905 76.9214 91.7854 77.9621 94.3523C79.2629 97.561 75.7941 100.856 74.2331 100.856C72.6721 100.856 72.6721 100.509 69.897 97.561C68.7176 96.7285 66.9775 92.9358 66.2548 91.1436C65.6188 89.9585 64.0174 87.2412 62.6992 85.8537C61.5708 84.6658 60.5312 82.0797 59.9835 80.435C60.5799 82.6054 60.8781 85.9388 60.8781 86.6342C60.8781 87.7312 58.9412 93.9477 58.5366 97.2141C62.0922 98.6884 67.6423 105.453 68.6829 108.921H58.9702C50.645 100.735 43.6496 98.4572 41.1924 98.3415C40.1518 107.014 34.8328 114.038 32.0867 116.466C19.8071 110.985 13.0371 99.4978 11.187 94.439Z" fill="#7C992F"/>
<path d="M41.1924 98.3415C40.1518 107.014 34.8328 114.038 32.0867 116.466C19.8071 110.985 13.0371 99.4978 11.187 94.439C17.8068 82.4426 32.4336 58.2764 37.9838 57.5827C42.3545 54.4607 44.1987 50.7895 44.5745 49.3442C49.084 40.2674 60.7393 22.8249 71.2846 25.6694C84.4661 29.2249 93.225 38.3306 94.2656 40.5854C95.3063 42.8401 95.5664 51.1653 93.5718 52.8997C91.9762 54.2873 88.1662 53.4778 86.4607 52.8997C81.0263 51.1363 68.3675 44.1045 68.1626 45.0949C67.9602 45.7019 67.9718 47.4363 69.6369 49.5176C70.1383 49.9896 74.4343 54.7804 77.8754 56.8022C82.5274 59.5356 86.6191 59.3887 87.0678 59.8374C82.9919 62.6125 77.8754 62.1789 69.897 58.8835C66.2258 56.3396 58.5886 53.6455 57.4092 63.2195C55.935 75.187 64.4336 72.4986 66.6016 78.1355C68.3361 82.645 71.5447 85.3333 72.9323 86.1138C74.1753 87.7905 76.9214 91.7854 77.9621 94.3523C79.2629 97.561 75.7941 100.856 74.2331 100.856C72.6721 100.856 72.6721 100.509 69.897 97.561C68.7176 96.7285 66.9775 92.9358 66.2548 91.1436C65.6188 89.9585 64.0174 87.2412 62.6992 85.8537C61.3811 84.4661 60.1843 81.1707 59.7507 79.6965C60.5022 81.7488 60.8781 85.8537 60.8781 86.6342C60.8781 87.7312 58.9412 93.9477 58.5366 97.2141M41.1924 98.3415C38.5618 96.029 32.8152 89.8081 30.8726 83.4255M41.1924 98.3415C43.6496 98.4572 50.645 100.735 58.9702 108.921H68.6829C67.6423 105.453 62.0922 98.6884 58.5366 97.2141M58.5366 97.2141C55.1637 95.8156 51.3965 91.9819 50.038 90.103C50.038 90.103 47.6103 89.3995 45.8754 87.5881C43.2456 84.8423 41.1924 78.1355 41.1924 78.1355" stroke="black" stroke-width="1.25" stroke-linecap="round" stroke-linejoin="round"/>
<path d="M76.4011 31.9133C77.5984 31.9133 78.5691 32.8839 78.5691 34.0813C78.5691 35.2787 77.5984 36.2493 76.4011 36.2493C75.2037 36.2493 74.2331 35.2787 74.2331 34.0813C74.2331 32.8839 75.2037 31.9133 76.4011 31.9133Z" fill="black"/>
<path d="M76.4878 33.3008C76.9668 33.3008 77.355 33.6891 77.355 34.168C77.355 34.647 76.9668 35.0352 76.4878 35.0352C76.0089 35.0352 75.6206 34.647 75.6206 34.168C75.6206 33.6891 76.0089 33.3008 76.4878 33.3008Z" fill="#9F7D96"/>
<path d="M87.935 56.8889C88.3396 57.0334 88.8022 57.7908 87.4146 59.664C79.4363 59.2304 71.5747 51.3927 71.1978 51.0786C70.6775 50.645 68.5095 47.6098 68.5962 46.5691C68.8737 47.0547 76.7051 53.0267 81.3442 54.8943C83.8388 55.8985 87.935 56.8889 87.935 56.8889Z" fill="#BC3227" stroke="black" stroke-width="0.875"/>
<path d="M64 2.16801C98.1489 2.16801 125.832 29.8511 125.832 64C125.832 98.1488 98.1489 125.832 64 125.832C29.8512 125.832 2.16803 98.1488 2.16803 64C2.16803 29.8511 29.8512 2.16801 64 2.16801Z" stroke="black" stroke-width="3.125"/>
<path d="M64 2.16801C98.1489 2.16801 125.832 29.8511 125.832 64C125.832 98.1488 98.1489 125.832 64 125.832C29.8512 125.832 2.16803 98.1488 2.16803 64C2.16803 29.8511 29.8512 2.16801 64 2.16801Z" stroke="black" stroke-width="3.125"/>
</g>
<defs>
<clipPath id="clip0_7_47">
<rect width="128" height="128" fill="white"/>
</clipPath>
</defs>
</svg>
